<svg width="2418" height="664" viewBox="0 0 2418 664" fill="none" xmlns="http://www.w3.org/2000/svg">
<path d="M2329.71 416.271C2316.92 416.271 2305.06 414.192 2294.13 410.033C2283.35 405.874 2273.95 400.021 2265.94 392.474C2258.09 384.927 2251.93 376.07 2247.46 365.905C2243.15 355.739 2240.99 344.649 2240.99 332.635C2240.99 320.622 2243.15 309.532 2247.46 299.366C2251.93 289.2 2258.16 280.344 2266.17 272.797C2274.18 265.25 2283.58 259.397 2294.36 255.238C2305.14 251.079 2316.85 249 2329.48 249C2342.26 249 2353.97 251.079 2364.6 255.238C2375.38 259.397 2384.7 265.25 2392.55 272.797C2400.56 280.344 2406.8 289.2 2411.26 299.366C2415.73 309.378 2417.96 320.468 2417.96 332.635C2417.96 344.649 2415.73 355.816 2411.26 366.136C2406.8 376.302 2400.56 385.158 2392.55 392.705C2384.7 400.098 2375.38 405.874 2364.6 410.033C2353.97 414.192 2342.34 416.271 2329.71 416.271ZM2329.48 384.388C2336.72 384.388 2343.34 383.156 2349.35 380.691C2355.51 378.227 2360.9 374.684 2365.52 370.064C2370.14 365.443 2373.68 359.975 2376.15 353.66C2378.77 347.345 2380.07 340.337 2380.07 332.635C2380.07 324.934 2378.77 317.926 2376.15 311.611C2373.68 305.296 2370.14 299.828 2365.52 295.207C2361.05 290.587 2355.74 287.044 2349.58 284.58C2343.42 282.115 2336.72 280.883 2329.48 280.883C2322.24 280.883 2315.54 282.115 2309.38 284.58C2303.37 287.044 2298.06 290.587 2293.44 295.207C2288.81 299.828 2285.2 305.296 2282.58 311.611C2280.11 317.926 2278.88 324.934 2278.88 332.635C2278.88 340.183 2280.11 347.191 2282.58 353.66C2285.2 359.975 2288.74 365.443 2293.2 370.064C2297.83 374.684 2303.22 378.227 2309.38 380.691C2315.54 383.156 2322.24 384.388 2329.48 384.388Z" fill="#162943"/>
<path d="M2139.39 416.271C2126.61 416.271 2114.75 414.192 2103.81 410.033C2093.03 405.874 2083.64 400.021 2075.63 392.474C2067.77 384.927 2061.61 376.07 2057.14 365.905C2052.83 355.739 2050.67 344.649 2050.67 332.635C2050.67 320.622 2052.83 309.532 2057.14 299.366C2061.61 289.2 2067.85 280.344 2075.86 272.797C2083.87 265.25 2093.26 259.397 2104.04 255.238C2114.83 251.079 2126.53 249 2139.16 249C2151.95 249 2163.65 251.079 2174.28 255.238C2185.06 259.397 2194.38 265.25 2202.23 272.797C2210.24 280.344 2216.48 289.2 2220.95 299.366C2225.41 309.378 2227.65 320.468 2227.65 332.635C2227.65 344.649 2225.41 355.816 2220.95 366.136C2216.48 376.302 2210.24 385.158 2202.23 392.705C2194.38 400.098 2185.06 405.874 2174.28 410.033C2163.65 414.192 2152.02 416.271 2139.39 416.271ZM2139.16 384.388C2146.4 384.388 2153.02 383.156 2159.03 380.691C2165.19 378.227 2170.58 374.684 2175.2 370.064C2179.82 365.443 2183.37 359.975 2185.83 353.66C2188.45 347.345 2189.76 340.337 2189.76 332.635C2189.76 324.934 2188.45 317.926 2185.83 311.611C2183.37 305.296 2179.82 299.828 2175.2 295.207C2170.74 290.587 2165.42 287.044 2159.26 284.58C2153.1 282.115 2146.4 280.883 2139.16 280.883C2131.92 280.883 2125.22 282.115 2119.06 284.58C2113.05 287.044 2107.74 290.587 2103.12 295.207C2098.5 299.828 2094.88 305.296 2092.26 311.611C2089.8 317.926 2088.56 324.934 2088.56 332.635C2088.56 340.183 2089.8 347.191 2092.26 353.66C2094.88 359.975 2098.42 365.443 2102.89 370.064C2107.51 374.684 2112.9 378.227 2119.06 380.691C2125.22 383.156 2131.92 384.388 2139.16 384.388Z" fill="#162943"/>
<path d="M1895.57 413.5V251.773H1965.57C1980.05 251.773 1992.53 254.161 2003 258.936C2013.47 263.556 2021.56 270.256 2027.26 279.036C2032.96 287.815 2035.81 298.289 2035.81 310.457C2035.81 322.471 2032.96 332.868 2027.26 341.647C2021.56 350.272 2013.47 356.895 2003 361.516C1992.53 366.137 1980.05 368.447 1965.57 368.447H1916.36L1932.99 352.044V413.5H1895.57ZM1998.38 413.5L1957.95 354.816H1997.92L2038.81 413.5H1998.38ZM1932.99 356.202L1916.36 338.643H1963.49C1975.04 338.643 1983.67 336.179 1989.37 331.25C1995.07 326.167 1997.92 319.236 1997.92 310.457C1997.92 301.523 1995.07 294.592 1989.37 289.664C1983.67 284.735 1975.04 282.27 1963.49 282.27H1916.36L1932.99 264.48V356.202Z" fill="#162943"/>
<path d="M1783.8 416.271C1771.02 416.271 1759.16 414.192 1748.22 410.033C1737.44 405.874 1728.05 400.021 1720.04 392.474C1712.18 384.927 1706.02 376.07 1701.55 365.905C1697.24 355.739 1695.08 344.649 1695.08 332.635C1695.08 320.622 1697.24 309.532 1701.55 299.366C1706.02 289.2 1712.26 280.344 1720.27 272.797C1728.28 265.25 1737.67 259.397 1748.45 255.238C1759.24 251.079 1770.94 249 1783.57 249C1796.36 249 1808.06 251.079 1818.69 255.238C1829.47 259.397 1838.79 265.25 1846.64 272.797C1854.65 280.344 1860.89 289.2 1865.36 299.366C1869.83 309.378 1872.06 320.468 1872.06 332.635C1872.06 344.649 1869.83 355.816 1865.36 366.136C1860.89 376.302 1854.65 385.158 1846.64 392.705C1838.79 400.098 1829.47 405.874 1818.69 410.033C1808.06 414.192 1796.43 416.271 1783.8 416.271ZM1783.57 384.388C1790.81 384.388 1797.43 383.156 1803.44 380.691C1809.6 378.227 1814.99 374.684 1819.61 370.064C1824.23 365.443 1827.78 359.975 1830.24 353.66C1832.86 347.345 1834.17 340.337 1834.17 332.635C1834.17 324.934 1832.86 317.926 1830.24 311.611C1827.78 305.296 1824.23 299.828 1819.61 295.207C1815.15 290.587 1809.83 287.044 1803.67 284.58C1797.51 282.115 1790.81 280.883 1783.57 280.883C1776.33 280.883 1769.63 282.115 1763.47 284.58C1757.46 287.044 1752.15 290.587 1747.53 295.207C1742.91 299.828 1739.29 305.296 1736.67 311.611C1734.21 317.926 1732.97 324.934 1732.97 332.635C1732.97 340.183 1734.21 347.191 1736.67 353.66C1739.29 359.975 1742.83 365.443 1747.3 370.064C1751.92 374.684 1757.31 378.227 1763.47 380.691C1769.63 383.156 1776.33 384.388 1783.57 384.388Z" fill="#162943"/>
<path d="M1602.81 413.5V282.27H1551.05V251.773H1691.99V282.27H1640.24V413.5H1602.81Z" fill="#162943"/>
<path d="M1387.34 413.5V251.773H1418.3L1513.72 368.216H1498.7V251.773H1535.66V413.5H1504.94L1409.29 297.057H1424.3V413.5H1387.34Z" fill="#162943"/>
<path d="M1271.38 316.926H1349.24V346.037H1271.38V316.926ZM1274.15 383.465H1362.18V413.5H1236.96V251.773H1359.18V281.808H1274.15V383.465Z" fill="#162943"/>
<path d="M1121.11 413.5L1051.33 251.773H1091.76L1152.76 395.017H1128.96L1190.88 251.773H1228.08L1158.07 413.5H1121.11Z" fill="#162943"/>
<rect x="837.443" y="0.914062" width="246" height="599.356" rx="123" transform="rotate(45 837.443 0.914062)" fill="#6ECAE9"/>
<rect x="417.703" y="72.7344" width="246" height="589.887" rx="123" transform="rotate(45 417.703 72.7344)" fill="#E9A139"/>
<mask id="mask0_4357_56" style="mask-type:alpha" maskUnits="userSpaceOnUse" x="259" y="86" width="494" height="493">
<ellipse cx="506.182" cy="332.957" rx="246.225" ry="246.043" fill="#D9D9D9"/>
</mask>
<g mask="url(#mask0_4357_56)">
<rect x="605.773" y="-114.812" width="246" height="998.113" rx="123" transform="rotate(45 605.773 -114.812)" fill="#DE5164"/>
<rect x="893.584" y="-55.2422" width="246" height="919.323" rx="123" transform="rotate(45 893.584 -55.2422)" fill="#4D8BDD"/>
</g>
</svg>
